<svg width="176" height="19" viewBox="0 0 176 19" fill="none" xmlns="http://www.w3.org/2000/svg">
<path d="M0.677202 18V0.545454H7.56357C8.88743 0.545454 10.0153 0.798295 10.9471 1.30398C11.8789 1.80398 12.5891 2.5 13.0778 3.39204C13.5721 4.27841 13.8192 5.30114 13.8192 6.46023C13.8192 7.61932 13.5692 8.64205 13.0692 9.52841C12.5692 10.4148 11.8448 11.1051 10.896 11.5994C9.95277 12.0937 8.81072 12.3409 7.46982 12.3409H3.08061V9.38352H6.87322C7.58345 9.38352 8.16868 9.26136 8.62891 9.01705C9.09482 8.76705 9.44141 8.4233 9.66868 7.9858C9.90163 7.54261 10.0181 7.03409 10.0181 6.46023C10.0181 5.88068 9.90163 5.375 9.66868 4.94318C9.44141 4.50568 9.09482 4.16761 8.62891 3.92898C8.163 3.68466 7.57209 3.5625 6.85618 3.5625H4.36754V18H0.677202ZM16.2163 18V0.545454H23.1026C24.4208 0.545454 25.5458 0.78125 26.4776 1.25284C27.4151 1.71875 28.1282 2.38068 28.6168 3.23864C29.1112 4.09091 29.3583 5.09375 29.3583 6.24716C29.3583 7.40625 29.1083 8.40341 28.6083 9.23864C28.1083 10.0682 27.3839 10.7045 26.435 11.1477C25.4918 11.5909 24.3498 11.8125 23.0089 11.8125H18.3981V8.84659H22.4123C23.1168 8.84659 23.7021 8.75 24.168 8.55682C24.6339 8.36364 24.9805 8.07386 25.2077 7.6875C25.4407 7.30114 25.5572 6.82102 25.5572 6.24716C25.5572 5.66761 25.4407 5.17898 25.2077 4.78125C24.9805 4.38352 24.631 4.08239 24.1594 3.87784C23.6935 3.66761 23.1055 3.5625 22.3952 3.5625H19.9066V18H16.2163ZM25.6424 10.0568L29.9805 18H25.9066L21.6623 10.0568H25.6424ZM48.006 9.27273C48.006 11.1761 47.6452 12.7955 46.9237 14.1307C46.2077 15.4659 45.2305 16.4858 43.9918 17.1903C42.7589 17.8892 41.3725 18.2386 39.8327 18.2386C38.2816 18.2386 36.8896 17.8864 35.6566 17.1818C34.4237 16.4773 33.4492 15.4574 32.7333 14.1222C32.0174 12.7869 31.6594 11.1705 31.6594 9.27273C31.6594 7.36932 32.0174 5.75 32.7333 4.41477C33.4492 3.07955 34.4237 2.0625 35.6566 1.36364C36.8896 0.659091 38.2816 0.306818 39.8327 0.306818C41.3725 0.306818 42.7589 0.659091 43.9918 1.36364C45.2305 2.0625 46.2077 3.07955 46.9237 4.41477C47.6452 5.75 48.006 7.36932 48.006 9.27273ZM44.2646 9.27273C44.2646 8.03977 44.0799 7 43.7106 6.15341C43.3469 5.30682 42.8327 4.66477 42.168 4.22727C41.5032 3.78977 40.7248 3.57102 39.8327 3.57102C38.9407 3.57102 38.1623 3.78977 37.4975 4.22727C36.8327 4.66477 36.3157 5.30682 35.9464 6.15341C35.5827 7 35.4009 8.03977 35.4009 9.27273C35.4009 10.5057 35.5827 11.5455 35.9464 12.392C36.3157 13.2386 36.8327 13.8807 37.4975 14.3182C38.1623 14.7557 38.9407 14.9744 39.8327 14.9744C40.7248 14.9744 41.5032 14.7557 42.168 14.3182C42.8327 13.8807 43.3469 13.2386 43.7106 12.392C44.0799 11.5455 44.2646 10.5057 44.2646 9.27273ZM49.2781 3.58807V0.545454H63.6133V3.58807H58.2695V18H54.6218V3.58807H49.2781ZM81.217 9.27273C81.217 11.1761 80.8562 12.7955 80.1346 14.1307C79.4187 15.4659 78.4414 16.4858 77.2028 17.1903C75.9698 17.8892 74.5835 18.2386 73.0437 18.2386C71.4925 18.2386 70.1005 17.8864 68.8675 17.1818C67.6346 16.4773 66.6602 15.4574 65.9442 14.1222C65.2283 12.7869 64.8704 11.1705 64.8704 9.27273C64.8704 7.36932 65.2283 5.75 65.9442 4.41477C66.6602 3.07955 67.6346 2.0625 68.8675 1.36364C70.1005 0.659091 71.4925 0.306818 73.0437 0.306818C74.5835 0.306818 75.9698 0.659091 77.2028 1.36364C78.4414 2.0625 79.4187 3.07955 80.1346 4.41477C80.8562 5.75 81.217 7.36932 81.217 9.27273ZM77.4755 9.27273C77.4755 8.03977 77.2908 7 76.9215 6.15341C76.5579 5.30682 76.0437 4.66477 75.3789 4.22727C74.7141 3.78977 73.9357 3.57102 73.0437 3.57102C72.1516 3.57102 71.3732 3.78977 70.7085 4.22727C70.0437 4.66477 69.5266 5.30682 69.1573 6.15341C68.7937 7 68.6119 8.03977 68.6119 9.27273C68.6119 10.5057 68.7937 11.5455 69.1573 12.392C69.5266 13.2386 70.0437 13.8807 70.7085 14.3182C71.3732 14.7557 72.1516 14.9744 73.0437 14.9744C73.9357 14.9744 74.7141 14.7557 75.3789 14.3182C76.0437 13.8807 76.5579 13.2386 76.9215 12.392C77.2908 11.5455 77.4755 10.5057 77.4755 9.27273ZM99.3512 6.65625H95.6183C95.5501 6.1733 95.4109 5.74432 95.2006 5.36932C94.9904 4.98864 94.7205 4.66477 94.391 4.39773C94.0614 4.13068 93.6808 3.92614 93.2489 3.78409C92.8228 3.64205 92.3597 3.57102 91.8597 3.57102C90.9563 3.57102 90.1694 3.79545 89.4989 4.24432C88.8285 4.6875 88.3086 5.33523 87.9393 6.1875C87.57 7.03409 87.3853 8.0625 87.3853 9.27273C87.3853 10.517 87.57 11.5625 87.9393 12.4091C88.3143 13.2557 88.837 13.8949 89.5075 14.3267C90.1779 14.7585 90.9535 14.9744 91.8342 14.9744C92.3285 14.9744 92.7859 14.9091 93.2063 14.7784C93.6325 14.6477 94.0103 14.4574 94.3398 14.2074C94.6694 13.9517 94.9421 13.642 95.158 13.2784C95.3796 12.9148 95.533 12.5 95.6183 12.0341L99.3512 12.0511C99.2546 12.8523 99.0131 13.625 98.6268 14.3693C98.2461 15.108 97.7319 15.7699 97.0842 16.3551C96.4421 16.9347 95.6751 17.3949 94.783 17.7358C93.8967 18.071 92.8938 18.2386 91.7745 18.2386C90.2177 18.2386 88.8256 17.8864 87.5984 17.1818C86.3768 16.4773 85.4109 15.4574 84.7006 14.1222C83.9961 12.7869 83.6438 11.1705 83.6438 9.27273C83.6438 7.36932 84.0018 5.75 84.7177 4.41477C85.4336 3.07955 86.4052 2.0625 87.6325 1.36364C88.8597 0.659091 90.2404 0.306818 91.7745 0.306818C92.7859 0.306818 93.7234 0.448863 94.587 0.732954C95.4563 1.01705 96.2262 1.43182 96.8967 1.97727C97.5671 2.51704 98.1126 3.17898 98.533 3.96307C98.9592 4.74716 99.2319 5.64489 99.3512 6.65625ZM104.051 18.2216C103.489 18.2216 103.006 18.0227 102.603 17.625C102.205 17.2216 102.006 16.7386 102.006 16.1761C102.006 15.6193 102.205 15.142 102.603 14.7443C103.006 14.3466 103.489 14.1477 104.051 14.1477C104.597 14.1477 105.074 14.3466 105.483 14.7443C105.892 15.142 106.097 15.6193 106.097 16.1761C106.097 16.5511 106 16.8949 105.807 17.2074C105.62 17.5142 105.373 17.7614 105.066 17.9489C104.759 18.1307 104.421 18.2216 104.051 18.2216ZM124.547 6.65625H120.814C120.745 6.1733 120.606 5.74432 120.396 5.36932C120.186 4.98864 119.916 4.66477 119.586 4.39773C119.257 4.13068 118.876 3.92614 118.444 3.78409C118.018 3.64205 117.555 3.57102 117.055 3.57102C116.152 3.57102 115.365 3.79545 114.694 4.24432C114.024 4.6875 113.504 5.33523 113.135 6.1875C112.765 7.03409 112.581 8.0625 112.581 9.27273C112.581 10.517 112.765 11.5625 113.135 12.4091C113.51 13.2557 114.032 13.8949 114.703 14.3267C115.373 14.7585 116.149 14.9744 117.029 14.9744C117.524 14.9744 117.981 14.9091 118.402 14.7784C118.828 14.6477 119.206 14.4574 119.535 14.2074C119.865 13.9517 120.137 13.642 120.353 13.2784C120.575 12.9148 120.728 12.5 120.814 12.0341L124.547 12.0511C124.45 12.8523 124.208 13.625 123.822 14.3693C123.441 15.108 122.927 15.7699 122.279 16.3551C121.637 16.9347 120.87 17.3949 119.978 17.7358C119.092 18.071 118.089 18.2386 116.97 18.2386C115.413 18.2386 114.021 17.8864 112.794 17.1818C111.572 16.4773 110.606 15.4574 109.896 14.1222C109.191 12.7869 108.839 11.1705 108.839 9.27273C108.839 7.36932 109.197 5.75 109.913 4.41477C110.629 3.07955 111.6 2.0625 112.828 1.36364C114.055 0.659091 115.436 0.306818 116.97 0.306818C117.981 0.306818 118.919 0.448863 119.782 0.732954C120.652 1.01705 121.422 1.43182 122.092 1.97727C122.762 2.51704 123.308 3.17898 123.728 3.96307C124.154 4.74716 124.427 5.64489 124.547 6.65625ZM143.233 9.27273C143.233 11.1761 142.872 12.7955 142.15 14.1307C141.434 15.4659 140.457 16.4858 139.218 17.1903C137.985 17.8892 136.599 18.2386 135.059 18.2386C133.508 18.2386 132.116 17.8864 130.883 17.1818C129.65 16.4773 128.676 15.4574 127.96 14.1222C127.244 12.7869 126.886 11.1705 126.886 9.27273C126.886 7.36932 127.244 5.75 127.96 4.41477C128.676 3.07955 129.65 2.0625 130.883 1.36364C132.116 0.659091 133.508 0.306818 135.059 0.306818C136.599 0.306818 137.985 0.659091 139.218 1.36364C140.457 2.0625 141.434 3.07955 142.15 4.41477C142.872 5.75 143.233 7.36932 143.233 9.27273ZM139.491 9.27273C139.491 8.03977 139.306 7 138.937 6.15341C138.574 5.30682 138.059 4.66477 137.395 4.22727C136.73 3.78977 135.951 3.57102 135.059 3.57102C134.167 3.57102 133.389 3.78977 132.724 4.22727C132.059 4.66477 131.542 5.30682 131.173 6.15341C130.809 7 130.627 8.03977 130.627 9.27273C130.627 10.5057 130.809 11.5455 131.173 12.392C131.542 13.2386 132.059 13.8807 132.724 14.3182C133.389 14.7557 134.167 14.9744 135.059 14.9744C135.951 14.9744 136.73 14.7557 137.395 14.3182C138.059 13.8807 138.574 13.2386 138.937 12.392C139.306 11.5455 139.491 10.5057 139.491 9.27273ZM162.006 9.27273C162.006 11.1761 161.645 12.7955 160.924 14.1307C160.208 15.4659 159.23 16.4858 157.992 17.1903C156.759 17.8892 155.373 18.2386 153.833 18.2386C152.282 18.2386 150.89 17.8864 149.657 17.1818C148.424 16.4773 147.449 15.4574 146.733 14.1222C146.017 12.7869 145.659 11.1705 145.659 9.27273C145.659 7.36932 146.017 5.75 146.733 4.41477C147.449 3.07955 148.424 2.0625 149.657 1.36364C150.89 0.659091 152.282 0.306818 153.833 0.306818C155.373 0.306818 156.759 0.659091 157.992 1.36364C159.23 2.0625 160.208 3.07955 160.924 4.41477C161.645 5.75 162.006 7.36932 162.006 9.27273ZM158.265 9.27273C158.265 8.03977 158.08 7 157.711 6.15341C157.347 5.30682 156.833 4.66477 156.168 4.22727C155.503 3.78977 154.725 3.57102 153.833 3.57102C152.941 3.57102 152.162 3.78977 151.498 4.22727C150.833 4.66477 150.316 5.30682 149.946 6.15341C149.583 7 149.401 8.03977 149.401 9.27273C149.401 10.5057 149.583 11.5455 149.946 12.392C150.316 13.2386 150.833 13.8807 151.498 14.3182C152.162 14.7557 152.941 14.9744 153.833 14.9744C154.725 14.9744 155.503 14.7557 156.168 14.3182C156.833 13.8807 157.347 13.2386 157.711 12.392C158.08 11.5455 158.265 10.5057 158.265 9.27273ZM164.74 18V0.545454H168.43V14.9574H175.913V18H164.74Z" fill="white"/>
</svg>
